<?xml version="1.0" encoding="UTF-8" standalone="no"?>
<!DOCTYPE svg PUBLIC "-//W3C//DTD SVG 1.1//EN" "http://www.w3.org/Graphics/SVG/1.1/DTD/svg11.dtd">
<svg width="100%" height="100%" viewBox="0 0 827 286" version="1.1" xmlns="http://www.w3.org/2000/svg" xmlns:xlink="http://www.w3.org/1999/xlink" xml:space="preserve" xmlns:serif="http://www.serif.com/" style="fill-rule:evenodd;clip-rule:evenodd;stroke-linejoin:round;stroke-miterlimit:2;">
    <g transform="matrix(1,0,0,1,-3.06626,-2986.88)">
        <g id="Femme-Fusion-Export" serif:id="Femme Fusion Export" transform="matrix(0.646094,0,0,0.3575,3.06626,2986.88)">
            <rect x="0" y="0" width="1280" height="800" style="fill:none;"/>
            <g transform="matrix(1.54776,0,0,2.7972,-697.36,-525.521)">
                <g transform="matrix(240,0,0,240,440.48,357.794)">
                    <path d="M0.541,-0.708C0.538,-0.683 0.537,-0.658 0.536,-0.635C0.535,-0.611 0.534,-0.593 0.534,-0.58C0.534,-0.564 0.534,-0.549 0.535,-0.535C0.536,-0.521 0.536,-0.509 0.537,-0.498L0.514,-0.498C0.509,-0.545 0.503,-0.582 0.495,-0.609C0.487,-0.636 0.473,-0.655 0.453,-0.667C0.433,-0.679 0.402,-0.685 0.36,-0.685L0.297,-0.685C0.274,-0.685 0.257,-0.683 0.246,-0.68C0.234,-0.676 0.226,-0.668 0.222,-0.657C0.218,-0.645 0.216,-0.627 0.216,-0.602L0.216,-0.106C0.216,-0.082 0.219,-0.064 0.224,-0.052C0.229,-0.04 0.238,-0.032 0.253,-0.028C0.268,-0.024 0.289,-0.021 0.317,-0.02L0.317,-0C0.3,-0.001 0.278,-0.002 0.251,-0.003C0.224,-0.003 0.197,-0.003 0.17,-0.003C0.144,-0.003 0.12,-0.003 0.097,-0.003C0.074,-0.002 0.056,-0.001 0.042,-0L0.042,-0.02C0.065,-0.021 0.082,-0.024 0.094,-0.028C0.105,-0.032 0.113,-0.04 0.117,-0.052C0.121,-0.064 0.123,-0.082 0.123,-0.106L0.123,-0.602C0.123,-0.627 0.121,-0.645 0.117,-0.657C0.113,-0.668 0.105,-0.676 0.094,-0.681C0.082,-0.685 0.065,-0.687 0.042,-0.688L0.042,-0.708C0.067,-0.707 0.093,-0.707 0.12,-0.707C0.147,-0.706 0.174,-0.706 0.201,-0.706C0.228,-0.705 0.253,-0.705 0.276,-0.705L0.332,-0.705C0.363,-0.705 0.397,-0.705 0.437,-0.706C0.475,-0.706 0.51,-0.707 0.541,-0.708ZM0.386,-0.356L0.386,-0.336L0.186,-0.336L0.186,-0.356L0.386,-0.356ZM0.405,-0.488C0.402,-0.45 0.401,-0.421 0.402,-0.401C0.402,-0.381 0.402,-0.363 0.402,-0.346C0.402,-0.329 0.402,-0.311 0.403,-0.291C0.404,-0.271 0.405,-0.242 0.408,-0.204L0.385,-0.204C0.382,-0.225 0.379,-0.246 0.376,-0.267C0.372,-0.287 0.364,-0.304 0.352,-0.317C0.339,-0.33 0.318,-0.336 0.289,-0.336L0.289,-0.356C0.311,-0.356 0.328,-0.361 0.34,-0.37C0.351,-0.379 0.36,-0.39 0.365,-0.404C0.37,-0.418 0.374,-0.432 0.376,-0.448C0.378,-0.463 0.38,-0.476 0.382,-0.488L0.405,-0.488Z" style="fill-rule:nonzero;"/>
                </g>
                <g transform="matrix(240,0,0,240,577.04,357.794)">
                    <path d="M0.541,-0.708C0.538,-0.685 0.537,-0.662 0.536,-0.64C0.535,-0.618 0.534,-0.601 0.534,-0.59C0.534,-0.578 0.534,-0.567 0.535,-0.556C0.536,-0.545 0.536,-0.535 0.537,-0.528L0.514,-0.528C0.51,-0.567 0.504,-0.599 0.497,-0.622C0.49,-0.645 0.477,-0.661 0.46,-0.671C0.442,-0.68 0.415,-0.685 0.38,-0.685L0.297,-0.685C0.274,-0.685 0.257,-0.683 0.246,-0.68C0.234,-0.676 0.226,-0.668 0.222,-0.657C0.218,-0.645 0.216,-0.627 0.216,-0.602L0.216,-0.106C0.216,-0.082 0.218,-0.064 0.222,-0.052C0.226,-0.04 0.234,-0.032 0.246,-0.029C0.257,-0.025 0.274,-0.023 0.297,-0.023L0.37,-0.023C0.412,-0.023 0.444,-0.029 0.466,-0.04C0.487,-0.051 0.503,-0.07 0.513,-0.096C0.522,-0.121 0.529,-0.156 0.534,-0.2L0.557,-0.2C0.555,-0.182 0.554,-0.158 0.554,-0.128C0.554,-0.115 0.555,-0.097 0.556,-0.074C0.557,-0.05 0.558,-0.025 0.561,-0C0.527,-0.001 0.489,-0.002 0.446,-0.003C0.403,-0.003 0.365,-0.003 0.332,-0.003L0.276,-0.003C0.253,-0.003 0.228,-0.003 0.201,-0.003C0.174,-0.002 0.147,-0.002 0.12,-0.002C0.093,-0.001 0.067,-0.001 0.042,-0L0.042,-0.02C0.065,-0.021 0.082,-0.024 0.094,-0.028C0.105,-0.032 0.113,-0.04 0.117,-0.052C0.121,-0.064 0.123,-0.082 0.123,-0.106L0.123,-0.602C0.123,-0.627 0.121,-0.645 0.117,-0.657C0.113,-0.668 0.105,-0.676 0.094,-0.681C0.082,-0.685 0.065,-0.687 0.042,-0.688L0.042,-0.708C0.067,-0.707 0.093,-0.707 0.12,-0.707C0.147,-0.706 0.174,-0.706 0.201,-0.706C0.228,-0.705 0.253,-0.705 0.276,-0.705L0.332,-0.705C0.363,-0.705 0.397,-0.705 0.437,-0.706C0.475,-0.706 0.51,-0.707 0.541,-0.708ZM0.369,-0.366L0.369,-0.346L0.186,-0.346L0.186,-0.366L0.369,-0.366ZM0.398,-0.498C0.395,-0.46 0.394,-0.431 0.395,-0.411C0.395,-0.391 0.395,-0.373 0.395,-0.356C0.395,-0.339 0.395,-0.321 0.396,-0.301C0.397,-0.281 0.398,-0.252 0.401,-0.214L0.378,-0.214C0.375,-0.235 0.372,-0.256 0.369,-0.277C0.365,-0.297 0.357,-0.314 0.345,-0.327C0.332,-0.339 0.311,-0.346 0.282,-0.346L0.282,-0.366C0.304,-0.366 0.321,-0.371 0.333,-0.38C0.344,-0.389 0.353,-0.4 0.358,-0.414C0.363,-0.428 0.367,-0.443 0.369,-0.458C0.371,-0.472 0.373,-0.486 0.375,-0.498L0.398,-0.498Z" style="fill-rule:nonzero;"/>
                </g>
                <g transform="matrix(240,0,0,240,723.2,357.794)">
                    <path d="M0.829,-0.708L0.829,-0.688C0.806,-0.687 0.789,-0.685 0.778,-0.681C0.766,-0.676 0.758,-0.668 0.754,-0.657C0.75,-0.645 0.748,-0.627 0.748,-0.602L0.748,-0.106C0.748,-0.082 0.75,-0.064 0.754,-0.052C0.758,-0.04 0.766,-0.032 0.778,-0.028C0.789,-0.024 0.806,-0.021 0.829,-0.02L0.829,-0C0.814,-0.001 0.795,-0.002 0.772,-0.003C0.748,-0.003 0.725,-0.003 0.702,-0.003C0.676,-0.003 0.652,-0.003 0.629,-0.003C0.606,-0.002 0.588,-0.001 0.574,-0L0.574,-0.02C0.597,-0.021 0.614,-0.024 0.626,-0.028C0.637,-0.032 0.645,-0.04 0.649,-0.052C0.653,-0.064 0.655,-0.082 0.655,-0.106L0.655,-0.656L0.659,-0.653L0.414,0.005L0.398,0.005L0.146,-0.644L0.146,-0.116C0.146,-0.092 0.148,-0.073 0.153,-0.06C0.157,-0.046 0.166,-0.036 0.179,-0.031C0.192,-0.025 0.211,-0.021 0.237,-0.02L0.237,-0C0.225,-0.001 0.209,-0.002 0.19,-0.003C0.171,-0.003 0.152,-0.003 0.135,-0.003C0.118,-0.003 0.101,-0.003 0.085,-0.003C0.068,-0.002 0.053,-0.001 0.042,-0L0.042,-0.02C0.065,-0.021 0.082,-0.025 0.094,-0.031C0.105,-0.036 0.113,-0.046 0.117,-0.06C0.121,-0.073 0.123,-0.092 0.123,-0.116L0.123,-0.602C0.123,-0.627 0.121,-0.645 0.117,-0.657C0.113,-0.668 0.105,-0.676 0.094,-0.681C0.082,-0.685 0.065,-0.687 0.042,-0.688L0.042,-0.708C0.053,-0.707 0.068,-0.707 0.085,-0.706C0.101,-0.705 0.118,-0.705 0.135,-0.705C0.15,-0.705 0.165,-0.705 0.181,-0.706C0.196,-0.707 0.209,-0.707 0.22,-0.708L0.447,-0.11L0.43,-0.102L0.655,-0.705L0.702,-0.705C0.725,-0.705 0.748,-0.705 0.772,-0.706C0.795,-0.707 0.814,-0.707 0.829,-0.708Z" style="fill-rule:nonzero;"/>
                </g>
                <g transform="matrix(240,0,0,240,932.24,357.794)">
                    <path d="M0.829,-0.708L0.829,-0.688C0.806,-0.687 0.789,-0.685 0.778,-0.681C0.766,-0.676 0.758,-0.668 0.754,-0.657C0.75,-0.645 0.748,-0.627 0.748,-0.602L0.748,-0.106C0.748,-0.082 0.75,-0.064 0.754,-0.052C0.758,-0.04 0.766,-0.032 0.778,-0.028C0.789,-0.024 0.806,-0.021 0.829,-0.02L0.829,-0C0.814,-0.001 0.795,-0.002 0.772,-0.003C0.748,-0.003 0.725,-0.003 0.702,-0.003C0.676,-0.003 0.652,-0.003 0.629,-0.003C0.606,-0.002 0.588,-0.001 0.574,-0L0.574,-0.02C0.597,-0.021 0.614,-0.024 0.626,-0.028C0.637,-0.032 0.645,-0.04 0.649,-0.052C0.653,-0.064 0.655,-0.082 0.655,-0.106L0.655,-0.656L0.659,-0.653L0.414,0.005L0.398,0.005L0.146,-0.644L0.146,-0.116C0.146,-0.092 0.148,-0.073 0.153,-0.06C0.157,-0.046 0.166,-0.036 0.179,-0.031C0.192,-0.025 0.211,-0.021 0.237,-0.02L0.237,-0C0.225,-0.001 0.209,-0.002 0.19,-0.003C0.171,-0.003 0.152,-0.003 0.135,-0.003C0.118,-0.003 0.101,-0.003 0.085,-0.003C0.068,-0.002 0.053,-0.001 0.042,-0L0.042,-0.02C0.065,-0.021 0.082,-0.025 0.094,-0.031C0.105,-0.036 0.113,-0.046 0.117,-0.06C0.121,-0.073 0.123,-0.092 0.123,-0.116L0.123,-0.602C0.123,-0.627 0.121,-0.645 0.117,-0.657C0.113,-0.668 0.105,-0.676 0.094,-0.681C0.082,-0.685 0.065,-0.687 0.042,-0.688L0.042,-0.708C0.053,-0.707 0.068,-0.707 0.085,-0.706C0.101,-0.705 0.118,-0.705 0.135,-0.705C0.15,-0.705 0.165,-0.705 0.181,-0.706C0.196,-0.707 0.209,-0.707 0.22,-0.708L0.447,-0.11L0.43,-0.102L0.655,-0.705L0.702,-0.705C0.725,-0.705 0.748,-0.705 0.772,-0.706C0.795,-0.707 0.814,-0.707 0.829,-0.708Z" style="fill-rule:nonzero;"/>
                </g>
                <g transform="matrix(240,0,0,240,1141.28,357.794)">
                    <path d="M0.541,-0.708C0.538,-0.685 0.537,-0.662 0.536,-0.64C0.535,-0.618 0.534,-0.601 0.534,-0.59C0.534,-0.578 0.534,-0.567 0.535,-0.556C0.536,-0.545 0.536,-0.535 0.537,-0.528L0.514,-0.528C0.51,-0.567 0.504,-0.599 0.497,-0.622C0.49,-0.645 0.477,-0.661 0.46,-0.671C0.442,-0.68 0.415,-0.685 0.38,-0.685L0.297,-0.685C0.274,-0.685 0.257,-0.683 0.246,-0.68C0.234,-0.676 0.226,-0.668 0.222,-0.657C0.218,-0.645 0.216,-0.627 0.216,-0.602L0.216,-0.106C0.216,-0.082 0.218,-0.064 0.222,-0.052C0.226,-0.04 0.234,-0.032 0.246,-0.029C0.257,-0.025 0.274,-0.023 0.297,-0.023L0.37,-0.023C0.412,-0.023 0.444,-0.029 0.466,-0.04C0.487,-0.051 0.503,-0.07 0.513,-0.096C0.522,-0.121 0.529,-0.156 0.534,-0.2L0.557,-0.2C0.555,-0.182 0.554,-0.158 0.554,-0.128C0.554,-0.115 0.555,-0.097 0.556,-0.074C0.557,-0.05 0.558,-0.025 0.561,-0C0.527,-0.001 0.489,-0.002 0.446,-0.003C0.403,-0.003 0.365,-0.003 0.332,-0.003L0.276,-0.003C0.253,-0.003 0.228,-0.003 0.201,-0.003C0.174,-0.002 0.147,-0.002 0.12,-0.002C0.093,-0.001 0.067,-0.001 0.042,-0L0.042,-0.02C0.065,-0.021 0.082,-0.024 0.094,-0.028C0.105,-0.032 0.113,-0.04 0.117,-0.052C0.121,-0.064 0.123,-0.082 0.123,-0.106L0.123,-0.602C0.123,-0.627 0.121,-0.645 0.117,-0.657C0.113,-0.668 0.105,-0.676 0.094,-0.681C0.082,-0.685 0.065,-0.687 0.042,-0.688L0.042,-0.708C0.067,-0.707 0.093,-0.707 0.12,-0.707C0.147,-0.706 0.174,-0.706 0.201,-0.706C0.228,-0.705 0.253,-0.705 0.276,-0.705L0.332,-0.705C0.363,-0.705 0.397,-0.705 0.437,-0.706C0.475,-0.706 0.51,-0.707 0.541,-0.708ZM0.369,-0.366L0.369,-0.346L0.186,-0.346L0.186,-0.366L0.369,-0.366ZM0.398,-0.498C0.395,-0.46 0.394,-0.431 0.395,-0.411C0.395,-0.391 0.395,-0.373 0.395,-0.356C0.395,-0.339 0.395,-0.321 0.396,-0.301C0.397,-0.281 0.398,-0.252 0.401,-0.214L0.378,-0.214C0.375,-0.235 0.372,-0.256 0.369,-0.277C0.365,-0.297 0.357,-0.314 0.345,-0.327C0.332,-0.339 0.311,-0.346 0.282,-0.346L0.282,-0.366C0.304,-0.366 0.321,-0.371 0.333,-0.38C0.344,-0.389 0.353,-0.4 0.358,-0.414C0.363,-0.428 0.367,-0.443 0.369,-0.458C0.371,-0.472 0.373,-0.486 0.375,-0.498L0.398,-0.498Z" style="fill-rule:nonzero;"/>
                </g>
            </g>
            <g transform="matrix(2.44922,0,0,4.42636,-970.097,-1494.01)">
                <g transform="matrix(80.6963,0,0,80.6963,719.505,517.086)">
                    <path d="M0.071,-0L0.071,-0.81L0.362,-0.81L0.362,-0.753L0.147,-0.753L0.147,-0.448L0.326,-0.448L0.326,-0.392L0.147,-0.392L0.147,-0L0.071,-0Z" style="fill-rule:nonzero;"/>
                </g>
                <g transform="matrix(80.6963,0,0,80.6963,748.646,517.086)">
                    <path d="M0.269,0.01C0.214,0.01 0.172,0 0.142,-0.02C0.111,-0.039 0.09,-0.067 0.079,-0.102C0.068,-0.136 0.062,-0.176 0.062,-0.221L0.062,-0.81L0.136,-0.81L0.136,-0.219C0.136,-0.188 0.139,-0.159 0.147,-0.134C0.154,-0.108 0.167,-0.088 0.186,-0.073C0.205,-0.058 0.233,-0.051 0.269,-0.051C0.304,-0.051 0.331,-0.058 0.35,-0.074C0.369,-0.089 0.383,-0.109 0.391,-0.134C0.398,-0.159 0.402,-0.188 0.402,-0.219L0.402,-0.81L0.475,-0.81L0.475,-0.221C0.475,-0.176 0.469,-0.136 0.457,-0.102C0.445,-0.067 0.424,-0.039 0.394,-0.02C0.364,0 0.322,0.01 0.269,0.01Z" style="fill-rule:nonzero;"/>
                </g>
                <g transform="matrix(80.6963,0,0,80.6963,789.973,517.086)">
                    <path d="M0.243,0.01C0.199,0.01 0.163,0.001 0.134,-0.018C0.105,-0.036 0.083,-0.062 0.068,-0.095C0.053,-0.128 0.044,-0.166 0.041,-0.21L0.108,-0.23C0.111,-0.197 0.117,-0.167 0.126,-0.14C0.135,-0.113 0.148,-0.091 0.167,-0.076C0.186,-0.06 0.211,-0.052 0.244,-0.052C0.28,-0.052 0.308,-0.061 0.328,-0.08C0.348,-0.099 0.358,-0.128 0.358,-0.169C0.358,-0.205 0.349,-0.236 0.332,-0.262C0.314,-0.288 0.29,-0.315 0.259,-0.344L0.116,-0.481C0.091,-0.506 0.072,-0.531 0.06,-0.558C0.048,-0.584 0.042,-0.613 0.042,-0.644C0.042,-0.7 0.059,-0.743 0.092,-0.773C0.125,-0.803 0.17,-0.818 0.225,-0.818C0.254,-0.818 0.28,-0.814 0.303,-0.807C0.326,-0.8 0.345,-0.788 0.362,-0.772C0.378,-0.755 0.391,-0.734 0.4,-0.708C0.409,-0.682 0.416,-0.65 0.419,-0.613L0.354,-0.596C0.351,-0.63 0.346,-0.659 0.338,-0.684C0.329,-0.708 0.316,-0.726 0.299,-0.739C0.281,-0.752 0.256,-0.758 0.225,-0.758C0.192,-0.758 0.164,-0.749 0.143,-0.732C0.122,-0.715 0.111,-0.688 0.111,-0.651C0.111,-0.629 0.115,-0.609 0.124,-0.591C0.132,-0.573 0.147,-0.554 0.168,-0.533L0.311,-0.398C0.343,-0.368 0.371,-0.335 0.394,-0.298C0.417,-0.261 0.429,-0.22 0.429,-0.174C0.429,-0.133 0.421,-0.099 0.406,-0.072C0.39,-0.045 0.368,-0.024 0.34,-0.011C0.312,0.003 0.28,0.01 0.243,0.01Z" style="fill-rule:nonzero;"/>
                </g>
                <g transform="matrix(80.6963,0,0,80.6963,825.086,517.086)">
                    <rect x="0.073" y="-0.81" width="0.076" height="0.81" style="fill-rule:nonzero;"/>
                </g>
                <g transform="matrix(80.6963,0,0,80.6963,840.993,517.086)">
                    <path d="M0.263,0.01C0.209,0.01 0.167,-0.001 0.137,-0.022C0.106,-0.043 0.085,-0.072 0.073,-0.11C0.06,-0.147 0.054,-0.19 0.054,-0.239L0.054,-0.575C0.054,-0.624 0.061,-0.667 0.074,-0.704C0.087,-0.74 0.108,-0.768 0.139,-0.788C0.169,-0.808 0.21,-0.818 0.263,-0.818C0.315,-0.818 0.356,-0.808 0.387,-0.788C0.417,-0.768 0.438,-0.74 0.451,-0.704C0.464,-0.667 0.47,-0.624 0.47,-0.575L0.47,-0.238C0.47,-0.189 0.464,-0.147 0.452,-0.11C0.439,-0.073 0.418,-0.043 0.388,-0.022C0.358,-0.001 0.316,0.01 0.263,0.01ZM0.263,-0.051C0.298,-0.051 0.325,-0.058 0.344,-0.073C0.363,-0.087 0.376,-0.107 0.383,-0.133C0.39,-0.158 0.393,-0.188 0.393,-0.222L0.393,-0.589C0.393,-0.623 0.39,-0.653 0.383,-0.678C0.376,-0.703 0.363,-0.723 0.344,-0.737C0.325,-0.75 0.298,-0.757 0.263,-0.757C0.227,-0.757 0.2,-0.75 0.181,-0.737C0.162,-0.723 0.149,-0.703 0.142,-0.678C0.135,-0.653 0.131,-0.623 0.131,-0.589L0.131,-0.222C0.131,-0.188 0.135,-0.158 0.142,-0.133C0.149,-0.107 0.162,-0.087 0.181,-0.073C0.2,-0.058 0.227,-0.051 0.263,-0.051Z" style="fill-rule:nonzero;"/>
                </g>
                <g transform="matrix(80.6963,0,0,80.6963,881.351,517.086)">
                    <path d="M0.071,-0L0.071,-0.81L0.126,-0.81L0.384,-0.181L0.384,-0.81L0.45,-0.81L0.45,-0L0.396,-0L0.137,-0.636L0.137,-0L0.071,-0Z" style="fill-rule:nonzero;"/>
                </g>
            </g>
        </g>
    </g>
</svg>
