<?xml version="1.0" standalone="no"?>
<!DOCTYPE svg PUBLIC "-//W3C//DTD SVG 20010904//EN"
 "http://www.w3.org/TR/2001/REC-SVG-20010904/DTD/svg10.dtd">
<svg version="1.0" xmlns="http://www.w3.org/2000/svg"
 width="884.000000pt" height="884.000000pt" viewBox="0 0 884.000000 884.000000"
 preserveAspectRatio="xMidYMid meet">
<metadata>
Created by potrace 1.14, written by Peter Selinger 2001-2017
</metadata>
<g transform="translate(0.000000,884.000000) scale(0.100000,-0.100000)"
fill="#000000" stroke="none">
<path d="M441 8804 c-172 -96 -312 -236 -406 -407 l-35 -64 0 -3913 0 -3913
35 -64 c94 -172 236 -314 408 -408 l64 -35 3913 0 3913 0 64 35 c172 94 314
236 408 408 l35 64 0 3913 0 3913 -35 64 c-94 172 -236 314 -408 408 l-64 35
-3914 0 -3914 0 -64 -36z m3589 -2420 c503 -3 1131 -1 1395 4 264 5 482 8 484
6 2 -2 7 -99 12 -216 13 -316 34 -543 85 -926 l7 -53 -114 3 -114 3 -21 95
c-71 323 -160 523 -295 665 -82 86 -166 134 -290 167 -80 20 -109 22 -586 25
l-503 4 0 -846 0 -847 288 4 c238 4 296 8 342 23 226 72 326 227 378 585 l17
115 100 0 100 0 -3 -30 c-11 -97 0 -1273 13 -1489 8 -132 15 -244 15 -249 0
-4 -46 -6 -102 -5 l-103 3 -12 120 c-39 373 -131 575 -296 650 -109 50 -151
55 -454 55 l-283 0 0 -577 c0 -318 5 -619 10 -670 30 -282 115 -324 733 -358
l117 -7 0 -106 0 -107 -1040 0 -1040 0 0 108 c0 95 2 107 18 107 43 0 254 21
317 31 164 27 249 85 287 198 l23 66 3 1430 c2 1020 0 1451 -8 1505 -32 212
-139 281 -465 296 -60 3 -125 7 -142 10 l-33 5 0 111 0 111 123 -6 c67 -4 534
-9 1037 -13z"/>
</g>
</svg>
